<svg width="34" height="34" viewBox="0 0 34 34" fill="none" xmlns="http://www.w3.org/2000/svg">
<path d="M17 4.45508C14.5819 4.45508 12.6147 6.42233 12.6147 8.84035C12.6147 11.2584 14.582 13.2256 17 13.2256C19.418 13.2256 21.3853 11.2584 21.3853 8.84035C21.3853 6.42233 19.4181 4.45508 17 4.45508ZM17 11.8974C15.3143 11.8974 13.9429 10.526 13.9429 8.84028C13.9429 7.15453 15.3143 5.78322 17 5.78322C18.6857 5.78322 20.0571 7.1546 20.0571 8.84035C20.0571 10.5261 18.6857 11.8974 17 11.8974Z" fill="#F0F7FE"/>
<path d="M22.9696 21.5423C23.1419 20.8991 23.0536 20.2274 22.7206 19.6508C22.0671 18.5189 20.6537 18.0933 19.493 18.6451C19.3906 17.3639 18.3153 16.3528 17.0082 16.3528C15.7012 16.3528 14.6259 17.3639 14.5235 18.6451C13.3627 18.0932 11.9495 18.5188 11.2959 19.6508C10.6424 20.7828 10.9804 22.2196 12.0387 22.9489C10.9804 23.6781 10.6424 25.1149 11.2959 26.2469C11.9495 27.3789 13.3628 27.8046 14.5235 27.2526C14.6259 28.5338 15.7012 29.545 17.0082 29.545C18.3153 29.545 19.3906 28.5338 19.493 27.2526C20.6538 27.8046 22.0671 27.3789 22.7206 26.2469C23.0536 25.6702 23.1419 24.9985 22.9696 24.3554C22.8147 23.7772 22.4658 23.2844 21.978 22.9489C22.4658 22.6133 22.8148 22.1205 22.9696 21.5423ZM20.3336 23.5239L21.1441 23.9919C21.4136 24.1475 21.6063 24.3986 21.6868 24.6991C21.7672 24.9995 21.7259 25.3134 21.5704 25.5828C21.2493 26.139 20.5356 26.3301 19.9795 26.0091L19.1689 25.5411C18.9634 25.4225 18.7103 25.4225 18.5049 25.5411C18.2994 25.6597 18.1728 25.879 18.1728 26.1162V27.0522C18.1728 27.6944 17.6504 28.2168 17.0082 28.2168C16.3659 28.2168 15.8435 27.6944 15.8435 27.0522V26.1162C15.8435 25.879 15.7169 25.6597 15.5115 25.5411C15.4087 25.4818 15.2941 25.4521 15.1794 25.4521C15.0648 25.4521 14.9501 25.4818 14.8474 25.5411L14.0368 26.0091C13.7674 26.1646 13.4535 26.206 13.1531 26.1254C12.8526 26.045 12.6014 25.8522 12.4459 25.5828C12.1248 25.0267 12.3161 24.313 12.8722 23.9919L13.6828 23.5239C13.8882 23.4053 14.0148 23.1861 14.0148 22.9489C14.0148 22.7116 13.8882 22.4924 13.6828 22.3738L12.8722 21.9058C12.316 21.5847 12.1248 20.871 12.4459 20.3149C12.6014 20.0455 12.8526 19.8527 13.1531 19.7723C13.4536 19.6917 13.7674 19.733 14.0368 19.8886L14.8474 20.3566C15.0529 20.4753 15.306 20.4753 15.5115 20.3566C15.7169 20.238 15.8435 20.0187 15.8435 19.7815V18.8455C15.8435 18.2034 16.3659 17.6809 17.0082 17.6809C17.6504 17.6809 18.1728 18.2034 18.1728 18.8455V19.7815C18.1728 20.0187 18.2994 20.238 18.5049 20.3566C18.7103 20.4753 18.9635 20.4753 19.1689 20.3566L19.9795 19.8886C20.5357 19.5675 21.2493 19.7588 21.5704 20.3149C21.7259 20.5843 21.7672 20.8981 21.6868 21.1986C21.6063 21.4991 21.4136 21.7503 21.1441 21.9058L20.3336 22.3738C20.1281 22.4924 20.0015 22.7116 20.0015 22.9489C20.0015 23.1861 20.1281 23.4053 20.3336 23.5239Z" fill="#F0F7FE"/>
<path d="M16.9998 22.2847C16.8251 22.2847 16.6538 22.3557 16.5303 22.4793C16.4067 22.6028 16.3357 22.7741 16.3357 22.9488C16.3357 23.1234 16.4067 23.2948 16.5303 23.4182C16.6538 23.5417 16.8251 23.6128 16.9998 23.6128C17.1744 23.6128 17.3457 23.5418 17.4693 23.4182C17.5928 23.2948 17.6638 23.1234 17.6638 22.9488C17.6638 22.7741 17.5928 22.6028 17.4693 22.4793C17.3457 22.3558 17.1744 22.2847 16.9998 22.2847Z" fill="#F0F7FE"/>
<path d="M33.8695 29.9249C32.9912 28.7401 31.5877 28.0328 30.1151 28.0328C30.05 28.0328 29.9852 28.0346 29.9205 28.0374C30.1782 27.7365 30.4258 27.4261 30.6629 27.1066L32.7848 26.4404C33.1347 26.3306 33.3293 25.9578 33.2194 25.6079C33.1095 25.2579 32.7368 25.0637 32.3869 25.1732L31.8011 25.3571C32.261 24.5451 32.6575 23.6881 32.9832 22.7917C33.8151 21.8185 34.1665 20.5043 33.9219 19.2452C33.6683 17.9401 32.7998 16.8182 31.5987 16.244C31.3348 16.1179 31.0197 16.1792 30.8223 16.3948C29.9236 17.3771 29.5384 18.7426 29.7921 20.0476C30.0063 21.1499 30.6603 22.1203 31.5819 22.7417C31.3657 23.2892 31.1204 23.82 30.8483 24.3325L30.7261 24.0451C30.5827 23.7075 30.1928 23.55 29.8553 23.6937C29.5177 23.837 29.3603 24.227 29.5038 24.5645L30.0034 25.7403C28.7435 27.6087 27.1018 29.1721 25.2096 30.3386C26.9749 28.3794 28.051 25.7876 28.051 22.9489C28.051 19.5983 26.5188 16.4311 23.9186 14.3377C25.1626 12.7766 25.8402 10.8509 25.8402 8.84035C25.8402 7.02212 25.2901 5.27415 24.2492 3.78557C23.2327 2.33171 21.8247 1.22683 20.1775 0.590313C19.8353 0.457963 19.4508 0.628298 19.3187 0.970362C19.1865 1.31249 19.3567 1.69699 19.6987 1.82921C22.5778 2.9416 24.5121 5.75919 24.5121 8.84035C24.5121 10.7581 23.786 12.5853 22.4678 13.9855C22.3357 14.1258 22.2711 14.3165 22.2907 14.5082C22.3103 14.6999 22.4122 14.8737 22.5699 14.9843C25.1704 16.8089 26.7229 19.7863 26.7229 22.9489C26.723 28.3102 22.3611 32.6721 16.9998 32.6721C11.6384 32.6721 7.27653 28.3102 7.27653 22.9488C7.27653 19.7862 8.82907 16.8088 11.4295 14.9842C11.5872 14.8735 11.6892 14.6998 11.7088 14.5081C11.7283 14.3165 11.6637 14.1257 11.5316 13.9854C10.2134 12.5853 9.48736 10.758 9.48736 8.84029C9.48736 5.75919 11.4217 2.9416 14.3007 1.82914C14.6428 1.69692 14.813 1.31243 14.6807 0.970295C14.5486 0.628231 14.1643 0.457963 13.822 0.590246C12.1747 1.22676 10.7667 2.33164 9.7502 3.7855C8.7094 5.27408 8.15922 7.02199 8.15922 8.84029C8.15922 10.8508 8.83677 12.7765 10.0808 14.3376C7.48067 16.431 5.94845 19.5983 5.94845 22.9488C5.94845 25.7875 7.02458 28.3793 8.78989 30.3386C6.89761 29.1721 5.25596 27.6086 3.99608 25.7403L4.49566 24.5645C4.6391 24.2269 4.48172 23.837 4.14417 23.6936C3.80675 23.5502 3.41674 23.7075 3.2733 24.045L3.15118 24.3324C2.87904 23.82 2.63373 23.2892 2.41751 22.7416C3.33911 22.1203 3.99322 21.1499 4.20739 20.0475C4.46093 18.7425 4.07583 17.377 3.17714 16.3948C2.97978 16.179 2.66441 16.1179 2.40078 16.2439C1.19967 16.8181 0.331127 17.9401 0.0775842 19.2451C-0.16706 20.5042 0.184301 21.8185 1.01625 22.7916C1.34198 23.688 1.73843 24.5449 2.1983 25.357L1.61259 25.1732C1.26276 25.0635 0.890011 25.2579 0.780041 25.6079C0.670203 25.9578 0.864776 26.3305 1.21468 26.4403L3.33659 27.1065C3.57366 27.426 3.82123 27.7364 4.07896 28.0373C4.01427 28.0346 3.94939 28.0327 3.88438 28.0327C2.41173 28.0327 1.00822 28.74 0.12998 29.9248C-0.0441403 30.1597 -0.0441403 30.4808 0.12998 30.7157C1.00822 31.9005 2.41173 32.6078 3.88438 32.6078C5.2282 32.6078 6.51418 32.0186 7.39627 31.0153C10.1662 32.9145 13.4954 34.0003 16.9998 34.0003C20.5041 34.0003 23.8333 32.9145 26.6032 31.0153C27.4853 32.0186 28.7713 32.6079 30.1151 32.6079C31.5877 32.6079 32.9912 31.9005 33.8695 30.7158C34.0435 30.4809 34.0435 30.1597 33.8695 29.9249ZM31.4812 17.712C32.071 18.1376 32.476 18.7668 32.6182 19.4985C32.7605 20.2303 32.6204 20.9653 32.2329 21.5808C31.6432 21.1552 31.2381 20.526 31.0959 19.7943C30.9537 19.0626 31.0937 18.3276 31.4812 17.712ZM1.38129 19.4985C1.52347 18.7667 1.92849 18.1376 2.51832 17.712C2.9058 18.3276 3.04579 19.0626 2.90361 19.7943C2.76143 20.5261 2.35642 21.1552 1.76659 21.5808C1.3791 20.9653 1.23911 20.2303 1.38129 19.4985ZM3.88445 31.2797C2.9912 31.2797 2.16078 30.9353 1.53954 30.3203C2.16078 29.7053 2.9912 29.3609 3.88445 29.3609C4.77769 29.3609 5.60812 29.7053 6.22936 30.3203C5.60812 30.9354 4.77769 31.2797 3.88445 31.2797ZM30.1151 31.2797C29.2218 31.2797 28.3914 30.9353 27.7702 30.3203C28.3914 29.7053 29.2218 29.3609 30.1151 29.3609C31.0083 29.3609 31.8387 29.7053 32.46 30.3203C31.8387 30.9354 31.0083 31.2797 30.1151 31.2797Z" fill="#F0F7FE"/>
<path d="M16.9998 1.3279C17.1744 1.3279 17.3457 1.25685 17.4693 1.13333C17.5928 1.00981 17.6638 0.83848 17.6638 0.663829C17.6638 0.489177 17.5928 0.317847 17.4693 0.194329C17.3457 0.0708117 17.1744 -0.000244141 16.9998 -0.000244141C16.8251 -0.000244141 16.6538 0.0708117 16.5303 0.194329C16.4067 0.317847 16.3357 0.489177 16.3357 0.663829C16.3357 0.83848 16.4067 1.00981 16.5303 1.13333C16.6538 1.25685 16.8251 1.3279 16.9998 1.3279Z" fill="#F0F7FE"/>
</svg>
