<svg width="35" height="36" viewBox="0 0 35 36" fill="none" xmlns="http://www.w3.org/2000/svg">
<path fill-rule="evenodd" clip-rule="evenodd" d="M33 28.7H7.18733C6.49156 28.717 5.67867 28.9567 5.48578 29.9359C5.45994 30.0753 5.44444 30.2283 5.44444 30.4C5.44444 31.7702 6.39167 32.0796 7.18733 32.1H33V35.5H7.16667C5.08967 35.5 2 34.1417 2 30.4V6.6C2 2.8583 5.08967 1.5 7.16667 1.5H29.5556C31.4552 1.5 33 3.0249 33 4.9V28.7ZM14.1909 7.92443C12.9438 7.92443 11.7469 8.41324 10.8594 9.28498C10.4189 9.70638 10.0685 10.212 9.82916 10.7714C9.58985 11.3309 9.4666 11.9327 9.4668 12.5407C9.467 13.1487 9.59064 13.7504 9.83032 14.3097C10.07 14.869 10.4208 15.3744 10.8616 15.7955L18.0022 22.7727L25.1407 15.7955C25.5811 15.3741 25.9315 14.8686 26.1708 14.3092C26.4101 13.7498 26.5335 13.1482 26.5335 12.5402C26.5335 11.9323 26.4101 11.3306 26.1708 10.7713C25.9315 10.2119 25.5811 9.70639 25.1407 9.28498C24.2529 8.4131 23.0556 7.92424 21.8081 7.92424C20.5607 7.92424 19.3634 8.4131 18.4755 9.28498L18.0001 9.74957L17.5225 9.28498C16.635 8.41324 15.4381 7.92443 14.1909 7.92443Z" fill="#8F99A3"/>
</svg>
