<svg width="35" height="36" viewBox="0 0 35 36" fill="none" xmlns="http://www.w3.org/2000/svg">
<g clip-path="url(#clip0_24_635)">
<path d="M23.2379 1.82531L34.6514 13.0296C34.7617 13.1378 34.8493 13.2675 34.9092 13.4109C34.9691 13.5542 35 13.7084 35 13.8641C35 14.0199 34.9691 14.174 34.9092 14.3174C34.8493 14.4608 34.7617 14.5904 34.6514 14.6987L23.2379 25.9029C23.1336 26.0073 23.0099 26.0898 22.8741 26.1455C22.7383 26.2012 22.593 26.229 22.4466 26.2275C22.1438 26.2275 21.8535 26.1054 21.6395 25.888C21.4254 25.6706 21.3052 25.3758 21.3052 25.0684V19.2886C11.1091 19.7058 6.81766 25.5011 6.63505 25.7484C6.48976 25.9426 6.28922 26.0868 6.06058 26.1614C5.83194 26.236 5.58624 26.2375 5.35674 26.1657C5.12781 26.0908 4.92804 25.9443 4.78593 25.7473C4.64382 25.5503 4.56664 25.3127 4.5654 25.0684C4.5654 12.6742 14.5941 8.87243 21.3052 8.48607V2.65984C21.3057 2.43189 21.3724 2.20915 21.4969 2.01948C21.6214 1.82981 21.7982 1.68164 22.0052 1.5935C22.2102 1.50373 22.4368 1.47785 22.6563 1.51912C22.8757 1.56039 23.0782 1.66697 23.2379 1.82531ZM7.22855 3.04619C5.31142 3.04619 3.47281 3.81959 2.11719 5.19625C0.761577 6.57291 0 8.44005 0 10.3869V28.1593C0 30.1061 0.761577 31.9733 2.11719 33.3499C3.47281 34.7266 5.31142 35.5 7.22855 35.5H24.7292C26.6464 35.5 28.485 34.7266 29.8406 33.3499C31.1962 31.9733 31.9578 30.1061 31.9578 28.1593V27.3865C31.9578 27.0791 31.8376 26.7843 31.6235 26.567C31.4095 26.3496 31.1192 26.2275 30.8165 26.2275C30.5137 26.2275 30.2234 26.3496 30.0094 26.567C29.7953 26.7843 29.6751 27.0791 29.6751 27.3865V28.1593C29.6751 29.4913 29.154 30.7689 28.2265 31.7108C27.299 32.6527 26.041 33.1819 24.7292 33.1819H7.22855C5.91683 33.1819 4.65883 32.6527 3.73131 31.7108C2.80378 30.7689 2.2827 29.4913 2.2827 28.1593V10.3869C2.2827 9.05486 2.80378 7.77734 3.73131 6.83541C4.65883 5.89349 5.91683 5.36432 7.22855 5.36432H14.0767C14.3794 5.36432 14.6697 5.24221 14.8837 5.02484C15.0978 4.80748 15.218 4.51266 15.218 4.20526C15.218 3.89786 15.0978 3.60304 14.8837 3.38568C14.6697 3.16831 14.3794 3.04619 14.0767 3.04619H7.22855Z" fill="#8F99A3"/>
</g>
<defs>
<clipPath id="clip0_24_635">
<rect width="35" height="35" fill="white" transform="translate(0 0.5)"/>
</clipPath>
</defs>
</svg>
