<svg width="35" height="36" viewBox="0 0 35 36" fill="none" xmlns="http://www.w3.org/2000/svg">
<g clip-path="url(#clip0_24_639)">
<path d="M8.13804 18.2514L11.3468 11.4474C11.4336 11.2529 11.5749 11.0877 11.7536 10.9718C11.9322 10.8558 12.1406 10.7942 12.3536 10.7942C12.5666 10.7942 12.775 10.8558 12.9537 10.9718C13.1323 11.0877 13.2736 11.2529 13.3604 11.4474L16.5723 18.2514L23.7464 19.351C24.6668 19.4899 25.0312 20.676 24.3641 21.3554L19.1757 26.6461L20.3987 34.1235C20.5562 35.0841 19.5957 35.816 18.7711 35.362L12.3536 31.8318L5.93606 35.362C5.11148 35.816 4.15101 35.0841 4.30852 34.1266L5.53149 26.6461L0.343103 21.3554C-0.327063 20.676 0.0404468 19.49 0.960768 19.3479L8.13804 18.2514Z" fill="#8F99A3"/>
<path d="M23.9548 5.47155L26.0939 0.935497C26.1518 0.805836 26.246 0.695711 26.3651 0.618433C26.4842 0.541154 26.6232 0.500031 26.7651 0.500031C26.9071 0.500031 27.0461 0.541154 27.1652 0.618433C27.2843 0.695711 27.3785 0.805836 27.4363 0.935497L29.5776 5.47155L34.3604 6.20457C34.9739 6.29722 35.2169 7.08789 34.7721 7.54088L31.3132 11.068L32.1285 16.0529C32.2335 16.6933 31.5932 17.1813 31.0435 16.8786L26.7651 14.5251L22.4868 16.8786C21.9371 17.1813 21.2967 16.6933 21.4017 16.055L22.2171 11.068L18.7581 7.54088C18.3114 7.08789 18.5564 6.29723 19.1699 6.20251L23.9548 5.47155Z" fill="#8F99A3"/>
</g>
<defs>
<clipPath id="clip0_24_639">
<rect width="35" height="35" fill="white" transform="translate(0 0.5)"/>
</clipPath>
</defs>
</svg>
