<svg width="58" height="58" viewBox="0 0 58 58" fill="none" xmlns="http://www.w3.org/2000/svg">
<path d="M11.1617 28.498L11.1617 28.4993C11.1631 29.2606 11.424 29.9987 11.9013 30.5917C12.2485 31.0231 12.6951 31.3591 13.1989 31.5734V35.0432C13.1989 35.3016 13.0963 35.5493 12.9136 35.732C12.7309 35.9147 12.4831 36.0174 12.2247 36.0174H11.9294C11.6732 36.0163 11.4276 35.9149 11.2452 35.7349C11.0638 35.5558 10.9594 35.3131 10.954 35.0584V28.1521C10.954 28.1521 10.954 28.152 10.954 28.152C10.9541 27.8407 10.8314 27.5418 10.6126 27.3203C10.3939 27.0987 10.0966 26.9722 9.78524 26.9683L9.76643 26.9683C9.45616 26.9721 9.15968 27.0971 8.94026 27.3165C8.72084 27.5359 8.59587 27.8324 8.59202 28.1427L8.59196 28.1427V28.152V35.0432C8.59196 35.301 8.48976 35.5483 8.30774 35.7309C8.12595 35.9133 7.87938 36.0163 7.62193 36.0174L7.31579 36.0173L7.31096 36.0174C7.05366 36.019 6.80615 35.9188 6.62247 35.7386C6.43976 35.5594 6.33497 35.3155 6.33065 35.0597V25.0441C6.33065 24.6299 5.99486 24.2941 5.58065 24.2941H5.15784C4.88637 24.2941 4.62602 24.1863 4.43406 23.9943C4.2421 23.8024 4.13426 23.542 4.13426 23.2705V18.5213C4.13529 17.6112 4.42348 16.7246 4.95777 15.9879C5.4196 15.3511 6.04494 14.8542 6.76453 14.5479C7.65348 15.1356 8.6983 15.4517 9.77026 15.4517C10.8416 15.4517 11.8859 15.136 12.7745 14.5489C13.0729 14.6777 13.3554 14.8408 13.6162 15.0349V15.0349V15.0359V15.0369V15.0379V15.0388V15.0398V15.0408V15.0418V15.0428V15.0437V15.0447V15.0457V15.0467V15.0477V15.0487V15.0496V15.0506V15.0516V15.0526V15.0536V15.0545V15.0555V15.0565V15.0575V15.0585V15.0595V15.0604V15.0614V15.0624V15.0634V15.0644V15.0654V15.0663V15.0673V15.0683V15.0693V15.0703V15.0713V15.0723V15.0732V15.0742V15.0752V15.0762V15.0772V15.0782V15.0792V15.0801V15.0811V15.0821V15.0831V15.0841V15.0851V15.0861V15.087V15.088V15.089V15.09V15.091V15.092V15.093V15.094V15.0949V15.0959V15.0969V15.0979V15.0989V15.0999V15.1009V15.1019V15.1028V15.1038V15.1048V15.1058V15.1068V15.1078V15.1088V15.1098V15.1108V15.1117V15.1127V15.1137V15.1147V15.1157V15.1167V15.1177V15.1187V15.1197V15.1207V15.1217V15.1226V15.1236V15.1246V15.1256V15.1266V15.1276V15.1286V15.1296V15.1306V15.1316V15.1326V15.1336V15.1345V15.1355V15.1365V15.1375V15.1385V15.1395V15.1405V15.1415V15.1425V15.1435V15.1445V15.1455V15.1465V15.1475V15.1485V15.1495V15.1504V15.1514V15.1524V15.1534V15.1544V15.1554V15.1564V15.1574V15.1584V15.1594V15.1604V15.1614V15.1624V15.1634V15.1644V15.1654V15.1664V15.1674V15.1684V15.1694V15.1704V15.1711C13.6162 15.1712 13.6162 15.1713 13.6162 15.1714C13.6159 16.1886 13.8993 17.179 14.4254 18.0352C13.5734 18.5385 12.841 19.228 12.2858 20.0567C11.5542 21.1486 11.163 22.4331 11.1617 23.7476V23.7483L11.1617 28.498Z" stroke="white" stroke-width="1.5" stroke-linejoin="round"/>
<path d="M7.71265 12.3701L7.71061 12.3683C7.21235 11.9488 6.85512 11.3863 6.68732 10.7569C6.51952 10.1276 6.54928 9.46187 6.77256 8.85C6.99583 8.23812 7.40184 7.70969 7.93553 7.33632C8.46923 6.96295 9.10482 6.7627 9.75616 6.7627C10.4075 6.7627 11.0431 6.96295 11.5768 7.33632C12.1105 7.70969 12.5165 8.23812 12.7398 8.85C12.963 9.46187 12.9928 10.1276 12.825 10.7569C12.6572 11.3863 12.3 11.9488 11.8017 12.3683L11.8017 12.3683L11.7997 12.3701C11.2288 12.8542 10.5046 13.1199 9.75616 13.1199C9.00768 13.1199 8.2835 12.8542 7.71265 12.3701Z" stroke="white" stroke-width="1.5" stroke-linejoin="round"/>
<path d="M13.2458 29.7484L13.7713 29.2213C13.9642 29.4136 14.2254 29.5215 14.4978 29.5215H14.9316C15.3458 29.5215 15.6816 29.8573 15.6816 30.2715V40.2926C15.6816 40.5509 15.7842 40.7987 15.9669 40.9814C16.1496 41.1641 16.3974 41.2667 16.6558 41.2667H16.9564C17.2148 41.2656 17.4623 41.1625 17.645 40.9798C17.8277 40.7971 17.9309 40.5496 17.9319 40.2912V33.3795C17.9319 33.3795 17.9319 33.3795 17.9319 33.3794C17.9319 33.0681 18.0546 32.7693 18.2734 32.5477L18.8071 33.0746L18.2734 32.5477C18.4921 32.3261 18.7894 32.1997 19.1007 32.1957L19.1196 32.1957C19.4298 32.1996 19.7263 32.3245 19.9457 32.5439C20.1651 32.7634 20.2901 33.0598 20.294 33.3701L20.2941 33.3794H20.294V40.2926C20.294 40.5504 20.3962 40.7977 20.5783 40.9803C20.76 41.1627 21.0066 41.2656 21.2641 41.2667H21.5633C21.8208 41.2656 22.0674 41.1627 22.2492 40.9803C22.4083 40.8206 22.5065 40.6115 22.5286 40.3891C22.0992 40.1415 21.7281 39.8005 21.4443 39.3887C21.0575 38.8275 20.8513 38.1617 20.8531 37.4802M13.2458 29.7484L21.6031 32.7315C21.6037 31.5154 21.9802 30.3293 22.6811 29.3355C23.2532 28.5243 24.0185 27.8737 24.9034 27.4396C24.7388 27.2452 24.5899 27.0394 24.4574 26.8245M13.2458 29.7484L13.7713 29.2213C13.5786 29.0292 13.4699 28.7687 13.4688 28.4966V23.7495C13.4718 22.8336 13.7657 21.9424 14.3079 21.2043C14.778 20.5644 15.4137 20.0682 16.1434 19.7672C17.0337 20.3589 18.0816 20.6772 19.1569 20.6772C20.2293 20.6772 21.2744 20.3606 22.1631 19.7721M13.2458 29.7484L22.0534 18.9272M20.8531 37.4802C20.8531 37.4798 20.8531 37.4793 20.8531 37.4789L21.6031 37.4812H20.8531V37.4802ZM20.8531 37.4802V32.7315V32.7311C20.8538 31.3604 21.2782 30.0234 22.0682 28.9032C22.6879 28.0244 23.509 27.3128 24.4574 26.8245M24.4574 26.8245C24.6814 26.7091 24.9126 26.6062 25.1499 26.5165C24.7548 25.9077 24.5172 25.2063 24.4638 24.4759C24.3955 23.5411 24.6325 22.6094 25.1393 21.8209M24.4574 26.8245C24.0317 26.1339 23.7755 25.3477 23.7158 24.5306C23.6459 23.5741 23.8484 22.6205 24.2957 21.7786M25.5182 27.1801C25.3935 27.2246 25.2706 27.2732 25.1497 27.3258L25.3167 27.1801H25.5182ZM25.5182 27.1801V27.0044M25.5182 27.1801L25.4704 27.0461L25.5182 27.0044M25.5182 27.0044C25.4809 26.9616 25.4445 26.9182 25.409 26.8741L25.4555 27.0044H25.5182ZM24.2957 21.7786C24.3499 21.885 24.3997 21.9938 24.4451 22.1047L25.1393 21.8209M24.2957 21.7786C24.3614 21.655 24.4323 21.5338 24.5084 21.4154L25.1393 21.8209M24.2957 21.7786C24.0686 21.3324 23.7654 20.9283 23.399 20.5846C23.036 20.2442 22.6178 19.9696 22.1631 19.7721M25.1393 21.8209C24.8631 21.1452 24.4445 20.5369 23.912 20.0375C23.3794 19.5381 22.7455 19.1594 22.0534 18.9272M22.0534 18.9272L22.5161 19.5174C22.4016 19.6073 22.2838 19.6922 22.1631 19.7721M22.0534 18.9272L21.8148 19.6382C21.933 19.6779 22.0492 19.7226 22.1631 19.7721" stroke="white" stroke-width="1.5" stroke-linejoin="round"/>
<path d="M17.0791 17.5962L17.0776 17.5949C16.724 17.2982 16.4398 16.9275 16.2451 16.509C16.0504 16.0905 15.9499 15.6344 15.9508 15.1728L15.9508 15.1708C15.9503 14.4475 16.1967 13.7456 16.6492 13.1813C17.1018 12.617 17.7334 12.2241 18.4397 12.0676C19.1459 11.9111 19.8844 12.0004 20.533 12.3206C21.1816 12.6409 21.7014 13.1729 22.0065 13.8288C22.3116 14.4847 22.3837 15.225 22.2109 15.9274C22.038 16.6298 21.6306 17.2522 21.0559 17.6915C20.4813 18.1309 19.7739 18.3609 19.0507 18.3436C18.3276 18.3262 17.632 18.0625 17.0791 17.5962Z" stroke="white" stroke-width="1.5" stroke-linejoin="round"/>
<path d="M46.3483 23.7476L46.3483 23.7483V28.498V28.4993C46.3469 29.2606 46.086 29.9987 45.6087 30.5917L45.0244 30.1215L45.6087 30.5917C45.2615 31.0232 44.8149 31.3591 44.3111 31.5734V35.0597C44.3133 35.1863 44.34 35.3112 44.39 35.4275C44.4404 35.5451 44.5135 35.6516 44.6052 35.7409C44.6968 35.8302 44.8051 35.9006 44.9239 35.948C45.0427 35.9955 45.1697 36.0191 45.2976 36.0174L45.3073 36.0173V36.0174H45.5984C45.8519 36.0131 46.094 35.9107 46.2736 35.7317C46.453 35.5528 46.5562 35.3115 46.5615 35.0584V28.1521C46.5615 28.1521 46.5615 28.152 46.5615 28.152C46.5615 27.8407 46.6841 27.5418 46.9029 27.3203C47.1217 27.0987 47.4189 26.9722 47.7303 26.9683L47.7491 26.9683C48.0594 26.9721 48.3558 27.0971 48.5753 27.3165C48.7947 27.5359 48.9196 27.8324 48.9235 28.1427L48.9236 28.152H48.9235V35.0597C48.9279 35.3155 49.0327 35.5594 49.2154 35.7386C49.399 35.9188 49.6466 36.019 49.9039 36.0174L49.9087 36.0173L50.2148 36.0174C50.4723 36.0163 50.7189 35.9133 50.9006 35.7309C51.0827 35.5483 51.1849 35.301 51.1849 35.0432V25.0441C51.1849 24.6299 51.5207 24.2941 51.9349 24.2941H52.3741C52.6456 24.2941 52.906 24.1863 53.0979 23.9943C53.2899 23.8024 53.3977 23.542 53.3977 23.2705V18.5216C53.3968 17.6114 53.1086 16.7247 52.5742 15.9879C52.1124 15.3511 51.487 14.8542 50.7675 14.5479C49.8785 15.1356 48.8337 15.4517 47.7617 15.4517C46.6884 15.4517 45.6423 15.1348 44.7526 14.5457C44.4442 14.6743 44.1521 14.8394 43.8828 15.0374V15.0379V15.0388V15.0398V15.0408V15.0418V15.0428V15.0437V15.0447V15.0457V15.0467V15.0477V15.0487V15.0496V15.0506V15.0516V15.0526V15.0536V15.0545V15.0555V15.0565V15.0575V15.0585V15.0595V15.0604V15.0614V15.0624V15.0634V15.0644V15.0654V15.0663V15.0673V15.0683V15.0693V15.0703V15.0713V15.0723V15.0732V15.0742V15.0752V15.0762V15.0772V15.0782V15.0792V15.0801V15.0811V15.0821V15.0831V15.0841V15.0851V15.0861V15.087V15.088V15.089V15.09V15.091V15.092V15.093V15.094V15.0949V15.0959V15.0969V15.0979V15.0989V15.0999V15.1009V15.1019V15.1028V15.1038V15.1048V15.1058V15.1068V15.1078V15.1088V15.1098V15.1108V15.1117V15.1127V15.1137V15.1147V15.1157V15.1167V15.1177V15.1187V15.1197V15.1207V15.1217V15.1226V15.1236V15.1246V15.1256V15.1266V15.1276V15.1286V15.1296V15.1306V15.1316V15.1326V15.1336V15.1345V15.1355V15.1365V15.1375V15.1385V15.1395V15.1405V15.1415V15.1425V15.1435V15.1445V15.1455V15.1465V15.1475V15.1485V15.1495V15.1504V15.1514V15.1524V15.1534V15.1544V15.1554V15.1564V15.1574V15.1584V15.1594V15.1604V15.1614V15.1624V15.1634V15.1644V15.1654V15.1664V15.1674V15.1684V15.1694V15.1703V15.1704V15.1714H43.7103C43.6811 15.1953 43.6521 15.2196 43.6235 15.2444L43.5604 15.1714H43.1328M46.3483 23.7476L45.5983 23.7483C45.5972 22.5823 45.2502 21.4428 44.6011 20.4741C44.0963 19.7207 43.4265 19.097 42.6465 18.6478C42.8064 18.4525 42.9518 18.2473 43.0822 18.0337M46.3483 23.7476C46.3471 22.4331 45.9559 21.1486 45.2242 20.0567C44.6684 19.2272 43.9352 18.5371 43.0822 18.0337M46.3483 23.7476L43.0822 18.0337M43.1328 15.1714L43.5593 15.1701L43.1328 14.6772V15.1714ZM43.1328 15.1714C43.1355 16.0667 42.8834 16.9387 42.4137 17.6887C42.6436 17.7913 42.8667 17.9065 43.0822 18.0337" stroke="white" stroke-width="1.5" stroke-linejoin="round"/>
<path d="M45.7157 12.37L45.713 12.3678C45.2132 11.9479 44.8545 11.3845 44.6858 10.7539C44.5171 10.1233 44.5464 9.45604 44.7698 8.84268C44.9933 8.22932 45.3999 7.69953 45.9347 7.32517C46.4695 6.95081 47.1065 6.75002 47.7593 6.75002C48.412 6.75002 49.049 6.95081 49.5838 7.32517C50.1186 7.69953 50.5252 8.22932 50.7487 8.84268C50.9721 9.45604 51.0014 10.1233 50.8327 10.7539C50.6639 11.3845 50.3053 11.9479 49.8055 12.3678L49.8055 12.3678L49.8028 12.37C49.2319 12.8541 48.5077 13.1199 47.7593 13.1199C47.0108 13.1199 46.2866 12.8541 45.7157 12.37Z" stroke="white" stroke-width="1.5" stroke-linejoin="round"/>
<path d="M43.0223 29.5215C43.2938 29.5204 43.5538 29.4121 43.7458 29.2201C43.9377 29.0282 44.046 28.7682 44.0472 28.4967V23.7485C44.0472 23.7484 44.0472 23.7484 44.0472 23.7483C44.0468 22.8368 43.7584 21.9487 43.2231 21.2109C42.7604 20.5731 42.1336 20.0758 41.4125 19.7698C40.523 20.3598 39.4766 20.6772 38.4029 20.6772C37.3294 20.6772 36.2832 20.36 35.3938 19.7702C34.934 19.9661 34.5106 20.2405 34.1431 20.5821C33.773 20.9261 33.4667 21.3315 33.2372 21.7796C33.6841 22.6212 33.8865 23.5745 33.8166 24.5306C33.7569 25.3477 33.5007 26.1339 33.075 26.8245C34.0234 27.3128 34.8444 28.0244 35.4642 28.9032C36.2542 30.0234 36.6786 31.3604 36.6792 32.7311L36.6792 32.7315L36.6792 37.4806L36.6792 37.4812M43.0223 29.5215L34.2325 39.9192C34.7307 39.735 35.1604 39.4026 35.4638 38.9667C35.7672 38.5307 35.9296 38.0123 35.9292 37.4812H36.6792M43.0223 29.5215H42.5898C42.1756 29.5215 41.8398 29.8573 41.8398 30.2715V40.2926C41.8398 40.5509 41.7372 40.7987 41.5545 40.9814C41.3718 41.1641 41.124 41.2667 40.8656 41.2667H40.565C40.3066 41.2656 40.0591 41.1625 39.8764 40.9798C39.6937 40.7971 39.5905 40.5496 39.5895 40.2912V33.3795C39.5895 33.3795 39.5895 33.3795 39.5895 33.3794C39.5895 33.0681 39.4668 32.7693 39.248 32.5477L38.7143 33.0746L39.248 32.5477C39.0293 32.3261 38.732 32.1997 38.4207 32.1957L38.4018 32.1957C38.0916 32.1996 37.7951 32.3245 37.5757 32.5439C37.3563 32.7634 37.2313 33.0598 37.2274 33.3701L37.2274 33.3701V33.3794V40.2926C37.2274 40.5509 37.1247 40.7987 36.942 40.9814C36.7594 41.1641 36.5116 41.2667 36.2532 41.2667H35.9526C35.6951 41.2656 35.4485 41.1627 35.2668 40.9803C35.1083 40.8214 35.0104 40.6134 34.9876 40.3922M43.0223 29.5215L34.9876 40.3922M36.6792 37.4812C36.6796 38.1655 36.4703 38.8334 36.0794 39.3951C35.793 39.8065 35.4193 40.1465 34.9876 40.3922M36.6792 37.4812L34.9876 40.3922" stroke="white" stroke-width="1.5" stroke-linejoin="round"/>
<path d="M36.3607 17.5938L36.3592 17.5925C36.0037 17.2973 35.7177 16.9273 35.5215 16.5089C35.3254 16.0906 35.2239 15.6341 35.2243 15.172L35.2243 15.17C35.223 14.4497 35.4674 13.7505 35.9172 13.1879C36.367 12.6253 36.9953 12.2329 37.6982 12.0756C38.4012 11.9184 39.1368 12.0056 39.7834 12.3228C40.4301 12.6401 40.9492 13.1685 41.255 13.8207C41.5608 14.4729 41.635 15.2099 41.4653 15.9099C41.2956 16.61 40.8922 17.2312 40.3217 17.671C39.7512 18.1108 39.0478 18.3428 38.3276 18.3288C37.6074 18.3148 36.9136 18.0555 36.3607 17.5938Z" stroke="white" stroke-width="1.5" stroke-linejoin="round"/>
<mask id="path-9-inside-1_12_460" fill="white">
<path d="M35.2318 37.4812V32.7315C35.2312 31.5782 34.8368 30.4596 34.1139 29.5609C33.391 28.6622 32.3828 28.0373 31.2564 27.7897C30.5429 28.2691 29.7027 28.5252 28.8431 28.5252C27.9835 28.5252 27.1433 28.2691 26.4298 27.7897C26.1275 27.8546 25.8317 27.9465 25.5458 28.0642C24.629 28.4541 23.8471 29.1049 23.2975 29.9358C22.7478 30.7666 22.4546 31.7408 22.4544 32.737V37.4812C22.4546 37.7896 22.5353 38.0926 22.6884 38.3603C22.8415 38.628 23.0617 38.8511 23.3274 39.0077C23.5993 39.1711 23.9108 39.2566 24.2279 39.2548H24.6617V49.2758C24.6632 49.7327 24.8453 50.1704 25.1683 50.4934C25.4914 50.8164 25.9291 50.9985 26.3859 51H26.6879C27.1452 51 27.5837 50.8183 27.9071 50.495C28.2304 50.1716 28.4121 49.7331 28.4121 49.2758V42.3627C28.4052 42.302 28.4112 42.2405 28.4298 42.1824C28.4483 42.1242 28.4789 42.0705 28.5196 42.025C28.5603 41.9794 28.6101 41.943 28.6659 41.918C28.7216 41.8931 28.782 41.8802 28.8431 41.8802C28.9042 41.8802 28.9646 41.8931 29.0203 41.918C29.0761 41.943 29.1259 41.9794 29.1666 42.025C29.2073 42.0705 29.2379 42.1242 29.2564 42.1824C29.275 42.2405 29.281 42.302 29.2741 42.3627V49.2758C29.2741 49.7331 29.4558 50.1716 29.7791 50.495C30.1025 50.8183 30.541 51 30.9983 51H31.2948C31.7517 50.9985 32.1894 50.8164 32.5124 50.4934C32.8354 50.1704 33.0175 49.7327 33.019 49.2758V39.2548H33.4583C33.9286 39.2548 34.3798 39.0679 34.7124 38.7353C35.045 38.4027 35.2318 37.9516 35.2318 37.4812Z"/>
</mask>
<path d="M35.2318 32.7315H36.7318L36.7318 32.7307L35.2318 32.7315ZM31.2564 27.7897L31.5785 26.3247C31.1784 26.2367 30.7598 26.3162 30.4198 26.5446L31.2564 27.7897ZM26.4298 27.7897L27.2664 26.5446C26.9286 26.3176 26.5129 26.2376 26.1149 26.3231L26.4298 27.7897ZM25.5458 28.0642L24.9745 26.6773C24.9692 26.6794 24.964 26.6816 24.9587 26.6838L25.5458 28.0642ZM22.4544 32.737L20.9544 32.7367V32.737H22.4544ZM22.4544 37.4812H20.9544L20.9544 37.4825L22.4544 37.4812ZM23.3274 39.0077L24.1001 37.722L24.089 37.7154L23.3274 39.0077ZM24.2279 39.2548V37.7548L24.2196 37.7548L24.2279 39.2548ZM24.6617 39.2548H26.1617C26.1617 38.4264 25.4902 37.7548 24.6617 37.7548V39.2548ZM24.6617 49.2758H23.1617L23.1617 49.2806L24.6617 49.2758ZM26.3859 51L26.3811 52.5H26.3859V51ZM26.6879 51V52.5V51ZM28.4121 42.3627H29.9121C29.9121 42.3064 29.9089 42.2501 29.9026 42.1942L28.4121 42.3627ZM28.8431 41.8802V43.3802V41.8802ZM29.2741 42.3627L27.7836 42.1942C27.7773 42.2501 27.7741 42.3064 27.7741 42.3627H29.2741ZM30.9983 51V52.5V51ZM31.2948 51V52.5L31.2996 52.5L31.2948 51ZM33.019 49.2758L34.519 49.2806V49.2758H33.019ZM33.019 39.2548V37.7548C32.1906 37.7548 31.519 38.4264 31.519 39.2548H33.019ZM33.4583 39.2548V40.7548V39.2548ZM35.2318 37.4812H33.7318H35.2318ZM36.7318 37.4812V32.7315H33.7318V37.4812H36.7318ZM36.7318 32.7307C36.7311 31.2356 36.2198 29.7856 35.2827 28.6207L32.9451 30.5011C33.4539 31.1335 33.7314 31.9207 33.7318 32.7323L36.7318 32.7307ZM35.2827 28.6207C34.3455 27.4558 33.0387 26.6457 31.5785 26.3247L30.9343 29.2547C31.727 29.429 32.4364 29.8687 32.9451 30.5011L35.2827 28.6207ZM30.4198 26.5446C29.9536 26.8579 29.4047 27.0252 28.8431 27.0252V30.0252C30.0007 30.0252 31.1321 29.6803 32.093 29.0347L30.4198 26.5446ZM28.8431 27.0252C28.2815 27.0252 27.7326 26.8579 27.2664 26.5446L25.5932 29.0347C26.5541 29.6803 27.6855 30.0252 28.8431 30.0252V27.0252ZM26.1149 26.3231C25.725 26.4068 25.3433 26.5253 24.9745 26.6773L26.1171 29.4512C26.32 29.3676 26.5301 29.3023 26.7447 29.2562L26.1149 26.3231ZM24.9587 26.6838C23.7712 27.1889 22.7585 28.0319 22.0465 29.1082L24.5485 30.7634C24.9358 30.1779 25.4868 29.7193 26.1328 29.4446L24.9587 26.6838ZM22.0465 29.1082C21.3345 30.1844 20.9547 31.4462 20.9544 32.7367L23.9544 32.7374C23.9545 32.0354 24.1611 31.3489 24.5485 30.7634L22.0465 29.1082ZM20.9544 32.737V37.4812H23.9544V32.737H20.9544ZM20.9544 37.4825C20.9548 38.0517 21.1037 38.6109 21.3863 39.105L23.9905 37.6156C23.9668 37.5743 23.9544 37.5275 23.9544 37.48L20.9544 37.4825ZM21.3863 39.105C21.6689 39.5991 22.0754 40.011 22.5658 40.3L24.089 37.7154C24.048 37.6913 24.0141 37.6569 23.9905 37.6156L21.3863 39.105ZM22.5548 40.2934C23.0624 40.5984 23.6441 40.7581 24.2362 40.7548L24.2196 37.7548C24.1775 37.7551 24.1362 37.7437 24.1001 37.722L22.5548 40.2934ZM24.2279 40.7548H24.6617V37.7548H24.2279V40.7548ZM23.1617 39.2548V49.2758H26.1617V39.2548H23.1617ZM23.1617 49.2806C23.1644 50.1336 23.5045 50.9509 24.1077 51.5541L26.229 49.4327C26.1861 49.3898 26.1619 49.3317 26.1617 49.2711L23.1617 49.2806ZM24.1077 51.5541C24.7108 52.1572 25.5281 52.4973 26.3811 52.5L26.3906 49.5C26.33 49.4998 26.2719 49.4756 26.229 49.4327L24.1077 51.5541ZM26.3859 52.5H26.6879V49.5H26.3859V52.5ZM26.6879 52.5C27.543 52.5 28.3631 52.1603 28.9677 51.5557L26.8464 49.4343C26.8044 49.4764 26.7473 49.5 26.6879 49.5V52.5ZM28.9677 51.5557C29.5724 50.951 29.9121 50.1309 29.9121 49.2758H26.9121C26.9121 49.3353 26.8884 49.3923 26.8464 49.4343L28.9677 51.5557ZM29.9121 49.2758V42.3627H26.9121V49.2758H29.9121ZM29.9026 42.1942C29.9194 42.3433 29.9046 42.4944 29.8591 42.6375L27.0005 41.7272C26.9179 41.9867 26.891 42.2607 26.9216 42.5312L29.9026 42.1942ZM29.8591 42.6375C29.8135 42.7805 29.7383 42.9123 29.6382 43.0243L27.401 41.0257C27.2195 41.2287 27.0831 41.4678 27.0005 41.7272L29.8591 42.6375ZM29.6382 43.0243C29.5382 43.1363 29.4157 43.2258 29.2787 43.2871L28.0531 40.5489C27.8046 40.6601 27.5824 40.8226 27.401 41.0257L29.6382 43.0243ZM29.2787 43.2871C29.1417 43.3485 28.9932 43.3802 28.8431 43.3802V40.3802C28.5708 40.3802 28.3016 40.4377 28.0531 40.5489L29.2787 43.2871ZM28.8431 43.3802C28.693 43.3802 28.5445 43.3485 28.4075 43.2871L29.6331 40.5489C29.3846 40.4377 29.1154 40.3802 28.8431 40.3802V43.3802ZM28.4075 43.2871C28.2705 43.2258 28.148 43.1363 28.048 43.0243L30.2853 41.0257C30.1039 40.8226 29.8816 40.6601 29.6331 40.5489L28.4075 43.2871ZM28.048 43.0243C27.9479 42.9123 27.8727 42.7805 27.8272 42.6375L30.6857 41.7272C30.6031 41.4678 30.4667 41.2287 30.2853 41.0257L28.048 43.0243ZM27.8272 42.6375C27.7816 42.4944 27.7668 42.3434 27.7836 42.1942L30.7647 42.5312C30.7952 42.2606 30.7683 41.9867 30.6857 41.7272L27.8272 42.6375ZM27.7741 42.3627V49.2758H30.7741V42.3627H27.7741ZM27.7741 49.2758C27.7741 50.1309 28.1138 50.951 28.7185 51.5557L30.8398 49.4343C30.7978 49.3923 30.7741 49.3353 30.7741 49.2758H27.7741ZM28.7185 51.5557C29.3231 52.1603 30.1432 52.5 30.9983 52.5V49.5C30.9389 49.5 30.8818 49.4764 30.8398 49.4343L28.7185 51.5557ZM30.9983 52.5H31.2948V49.5H30.9983V52.5ZM31.2996 52.5C32.1526 52.4973 32.9699 52.1572 33.573 51.5541L31.4517 49.4327C31.4088 49.4756 31.3507 49.4998 31.2901 49.5L31.2996 52.5ZM33.573 51.5541C34.1762 50.9509 34.5163 50.1336 34.519 49.2806L31.519 49.2711C31.5188 49.3317 31.4946 49.3898 31.4517 49.4327L33.573 51.5541ZM34.519 49.2758V39.2548H31.519V49.2758H34.519ZM33.019 40.7548H33.4583V37.7548H33.019V40.7548ZM33.4583 40.7548C34.3265 40.7548 35.1591 40.4099 35.773 39.796L33.6517 37.6747C33.6004 37.726 33.5308 37.7548 33.4583 37.7548V40.7548ZM35.773 39.796C36.387 39.1821 36.7318 38.3494 36.7318 37.4812H33.7318C33.7318 37.5538 33.703 37.6234 33.6517 37.6747L35.773 39.796Z" fill="white" mask="url(#path-9-inside-1_12_460)"/>
<path d="M27.0174 26.3101L27.0157 26.3087C26.7007 26.0449 26.4485 25.7141 26.2774 25.3406C26.1063 24.967 26.0206 24.56 26.0266 24.1491L26.0267 24.1469C26.034 23.5139 26.2567 22.9024 26.6581 22.4128C27.0595 21.9233 27.6156 21.5851 28.2348 21.4538C28.8541 21.3225 29.4996 21.406 30.065 21.6906C30.6305 21.9751 31.0822 22.4437 31.3458 23.0192C31.6094 23.5948 31.6691 24.2429 31.5152 24.8569C31.3613 25.4709 31.0029 26.0142 30.499 26.3973C29.995 26.7805 29.3757 26.9806 28.7429 26.9647C28.11 26.9489 27.5015 26.718 27.0174 26.3101Z" stroke="white" stroke-width="1.5" stroke-linejoin="round"/>
</svg>
